<svg xmlns="http://www.w3.org/2000/svg" xmlns:xlink="http://www.w3.org/1999/xlink" version="1.1" x="0px" y="0px" viewBox="0 0 100 125" style="enable-background:new 0 0 100 100;" xml:space="preserve"><path d="M78,32.4H66.5v-5c0-9.2-7.4-16.7-16.5-16.7s-16.5,7.5-16.5,16.7v5H22c-0.8,0-1.5,0.7-1.5,1.5v50c0,3,2.5,5.5,5.5,5.5h48  c3,0,5.5-2.5,5.5-5.5v-50C79.5,33,78.8,32.4,78,32.4z M36.5,27.3c0-7.6,6.1-13.7,13.5-13.7s13.5,6.1,13.5,13.7v5h-27V27.3z M74,86.4  H26c-1.4,0-2.5-1.1-2.5-2.5V35.4h10v14.8c0,0.8,0.7,1.5,1.5,1.5s1.5-0.7,1.5-1.5V35.4h27v14.8c0,0.8,0.7,1.5,1.5,1.5  s1.5-0.7,1.5-1.5V35.4h10v48.5C76.5,85.3,75.4,86.4,74,86.4z"/><text x="0" y="115" fill="#000000" font-size="5px" font-weight="bold" font-family="'Helvetica Neue', Helvetica, Arial-Unicode, Arial, Sans-serif">Created by Shastry</text><text x="0" y="120" fill="#000000" font-size="5px" font-weight="bold" font-family="'Helvetica Neue', Helvetica, Arial-Unicode, Arial, Sans-serif">from the Noun Project</text></svg>